PathFileType	3	(X/Y/Z)	walking_1__view1_aligned.trc
DataRate	CameraRate	NumFrames	NumMarkers	Units	OrigDataRate	OrigDataStartFrame	OrigNumFrames
100.0	100.0	7	19	mm	100.0	3816	6105
Frame#	Time	pelvis			neck			head			hip_left			hip_right			knee_left			knee_right			ankle_left			ankle_right			heel_left			heel_right			toe_left			toe_right			shoulder_left			shoulder_right			elbow_left			elbow_right			wrist_left			wrist_right			
		X1	Y1	Z1	X2	Y2	Z2	X3	Y3	Z3	X4	Y4	Z4	X5	Y5	Z5	X6	Y6	Z6	X7	Y7	Z7	X8	Y8	Z8	X9	Y9	Z9	X10	Y10	Z10	X11	Y11	Z11	X12	Y12	Z12	X13	Y13	Z13	X14	Y14	Z14	X15	Y15	Z15	X16	Y16	Z16	X17	Y17	Z17	X18	Y18	Z18	X19	Y19	Z19	
3816	38.15000	94.609084	950.151290	56.721601	55.355280	1517.079683	143.763319	62.997675	1620.391523	281.348469	172.210747	957.048610	57.061974	17.007200	943.253936	56.381411	151.327940	511.729863	103.027123	-36.916677	547.173967	263.130914	137.254785	100.150377	23.425948	-67.171369	213.269494	99.153748	136.140409	49.951033	-12.718188	-63.542762	185.291442	55.883117	133.922861	47.797832	216.737221	-91.269460	102.070526	223.768160	241.041135	1479.568385	116.002550	-119.603048	1439.068913	104.074564	322.289137	1197.131407	87.641404	-164.134975	1145.664191	82.404309	357.114897	948.881659	155.697403	-198.252204	907.250095	170.085066
3817	38.16000	94.398612	949.967143	55.795828	54.426855	1517.077984	143.877699	61.838637	1620.332975	281.616514	172.035104	956.872168	56.116108	16.761863	943.062078	55.475762	151.130426	510.659778	96.451469	-37.035259	548.235593	267.047322	137.116423	99.755510	13.160966	-66.860384	211.256386	112.999048	135.990159	49.581192	-23.330122	-63.194319	182.163987	70.707118	134.418638	47.076991	207.018574	-91.258825	103.853840	240.427587	240.560484	1479.788275	117.649494	-120.242501	1438.536196	102.472388	323.571528	1197.391632	92.926220	-164.255823	1144.947415	78.141063	357.955331	950.181973	165.479497	-200.775200	905.149287	161.273187
3818	38.17000	94.188140	949.782996	54.870054	53.498429	1517.076285	143.992079	60.679598	1620.274427	281.884559	171.859461	956.695726	55.170242	16.516526	942.870220	54.570112	150.932911	509.589693	89.875816	-37.153841	549.297220	270.963729	136.978061	99.360642	2.895984	-66.549399	209.243278	126.844348	135.839909	49.211352	-33.942055	-62.845877	179.036531	85.531120	134.914416	46.356151	197.299928	-91.248191	105.637153	257.087013	240.079833	1480.008165	119.296438	-120.881955	1438.003478	100.870211	324.853919	1197.651857	98.211036	-164.376671	1144.230638	73.877817	358.795764	951.482286	175.261592	-203.298195	903.048480	152.461309
3819	38.18000	93.977668	949.598849	53.944281	52.570004	1517.074586	144.106459	59.520559	1620.215879	282.152603	171.683817	956.519284	54.224376	16.271188	942.678362	53.664463	150.735396	508.519607	83.300162	-37.272424	550.358846	274.880137	136.839700	98.965775	-7.368998	-66.238414	207.230171	140.689648	135.689659	48.841512	-44.553989	-62.497435	175.909076	100.355121	135.410193	45.635311	187.581281	-91.237556	107.420466	273.746439	239.599181	1480.228054	120.943382	-121.521408	1437.470761	99.268034	326.136310	1197.912082	103.495852	-164.497519	1143.513861	69.614572	359.636197	952.782600	185.043686	-205.821191	900.947673	143.649430
3820	38.19000	93.767196	949.414702	53.018508	51.641578	1517.072888	144.220839	58.361521	1620.157331	282.420648	171.508174	956.342842	53.278510	16.025851	942.486504	52.758813	150.537882	507.449522	76.724509	-37.391006	551.420472	278.796545	136.701338	98.570908	-17.633980	-65.927428	205.217063	154.534948	135.539409	48.471672	-55.165922	-62.148993	172.781621	115.179123	135.905971	44.914471	177.862634	-91.226921	109.203779	290.405866	239.118530	1480.447944	122.590326	-122.160862	1436.938044	97.665857	327.418701	1198.172307	108.780669	-164.618367	1142.797084	65.351326	360.476630	954.082913	194.825781	-208.344187	898.846865	134.837551
3821	38.20000	92.386128	948.936534	52.887658	49.570526	1516.731678	144.635951	55.953861	1619.635216	282.894092	170.206729	955.730766	52.898737	14.565159	942.142244	52.876885	149.674537	506.093057	72.524482	-38.603799	551.671874	280.633763	134.487290	98.610832	-25.658956	-67.106059	201.480545	165.703210	132.957103	49.052449	-63.478291	-63.576051	167.642297	127.271977	134.164404	43.220926	168.319835	-91.187010	109.949220	305.349294	237.292904	1480.409910	124.080852	-123.788021	1436.300733	96.839410	327.109801	1198.294559	113.125349	-166.372021	1142.233005	62.328031	359.424524	955.580268	203.363205	-212.944983	897.399752	127.343861
3822	38.21000	91.005061	948.458367	52.756808	47.499474	1516.390467	145.051063	53.546201	1619.113100	283.367537	168.905284	955.118690	52.518964	13.104468	941.797984	52.994956	148.811192	504.736593	68.324455	-39.816592	551.923275	282.470981	132.273243	98.650756	-33.683931	-68.284690	197.744027	176.871473	130.374797	49.633225	-71.790660	-65.003108	162.502974	139.364830	132.422837	41.527382	158.777035	-91.147099	110.694661	320.292722	235.467278	1480.371876	125.571379	-125.415179	1435.663423	96.012963	326.800901	1198.416810	117.470030	-168.125676	1141.668926	59.304737	358.372418	957.077622	211.900630	-217.545778	895.952639	119.850170
